<?xml version="1.0" encoding="UTF-8" standalone="no"?>
<svg 
    role="img" 
    xmlns="http://www.w3.org/2000/svg" 
    width="5mm"
    height="5mm"
    viewBox="0 0 1000 1000"
    style="max-width:1em; height: auto;">
    
    <path 
        id="path" 
        style="opacity:1;vector-effect:none;fill:#f1f1f1;fill-opacity:1;"
        d=" M 200 688C 200 688 800 688 800 688C 823 687 844 699 855 718C 866 738 866 762 855 782C 844 801 823 813 800 812C 800 812 200 812 200 812C 177 813 156 801 145 782C 134 762 134 738 145 718C 156 699 177 687 200 688C 200 688 200 688 200 688M 200 437C 200 437 800 437 800 437C 823 437 844 449 855 468C 866 488 866 512 855 532C 844 551 823 563 800 563C 800 563 200 563 200 563C 177 563 156 551 145 532C 134 512 134 488 145 468C 156 449 177 437 200 437C 200 437 200 437 200 437M 200 188C 200 188 800 188 800 188C 823 187 844 199 855 218C 866 238 866 262 855 282C 844 301 823 313 800 312C 800 312 200 312 200 312C 177 313 156 301 145 282C 134 262 134 238 145 218C 156 199 177 187 200 188C 200 188 200 188 200 188"
        transform="">
    </path>    
</svg>